<?xml version="1.0" encoding="UTF-8" standalone="no"?>
<!-- Created with Inkscape (http://www.inkscape.org/) -->

<svg
   width="78.385406mm"
   height="29.122566mm"
   viewBox="0 0 78.385406 29.122566"
   version="1.1"
   id="svg1"
   inkscape:version="1.3.2 (091e20e, 2023-11-25)"
   sodipodi:docname="ec.svg"
   xmlns:inkscape="http://www.inkscape.org/namespaces/inkscape"
   xmlns:sodipodi="http://sodipodi.sourceforge.net/DTD/sodipodi-0.dtd"
   xmlns="http://www.w3.org/2000/svg"
   xmlns:svg="http://www.w3.org/2000/svg">
  <sodipodi:namedview
     id="namedview1"
     pagecolor="#ffffff"
     bordercolor="#666666"
     borderopacity="1.0"
     inkscape:showpageshadow="2"
     inkscape:pageopacity="0.0"
     inkscape:pagecheckerboard="0"
     inkscape:deskcolor="#d1d1d1"
     inkscape:document-units="mm"
     inkscape:zoom="3.2138482"
     inkscape:cx="120.26081"
     inkscape:cy="60.830502"
     inkscape:window-width="3440"
     inkscape:window-height="1403"
     inkscape:window-x="0"
     inkscape:window-y="0"
     inkscape:window-maximized="1"
     inkscape:current-layer="g4"
     showgrid="false" />
  <defs
     id="defs1" />
  <g
     inkscape:label="Layer 1"
     inkscape:groupmode="layer"
     id="layer1"
     transform="translate(-55.001355,-87.087464)">
    <g
       id="g4">
      <path
         style="font-size:18.167px;line-height:1.25;letter-spacing:0px;word-spacing:0px;fill:#999999;stroke:#1a1a1a;stroke-width:0.264583"
         d="m 131.62125,102.28321 h 1.63315 v 13.79461 h -1.63315 z"
         id="path10" />
      <path
         style="font-size:18.167px;line-height:1.25;letter-spacing:0px;word-spacing:0px;fill:#999999;stroke:#1a1a1a;stroke-width:0.264583"
         d="m 124.27944,107.09755 q -1.31284,0 -2.07572,1.02899 -0.76287,1.02012 -0.76287,2.80311 0,1.78299 0.754,2.81198 0.76287,1.02012 2.08459,1.02012 1.30398,0 2.06686,-1.02899 0.76287,-1.02899 0.76287,-2.80311 0,-1.76525 -0.76287,-2.79424 -0.76288,-1.03786 -2.06686,-1.03786 z m 0,-1.38381 q 2.12895,0 3.34422,1.38381 1.21528,1.38382 1.21528,3.8321 0,2.43942 -1.21528,3.8321 -1.21527,1.38382 -3.34422,1.38382 -2.13781,0 -3.35308,-1.38382 -1.20641,-1.39268 -1.20641,-3.8321 0,-2.44828 1.20641,-3.8321 1.21527,-1.38381 3.35308,-1.38381 z"
         id="path9"
         transform="scale(1.0005837,0.99941664)" />
      <path
         style="font-size:18.167px;line-height:1.25;letter-spacing:0px;word-spacing:0px;fill:#999999;stroke:#1a1a1a;stroke-width:0.264583"
         d="m 119.18628,107.67336 q -0.27515,-0.15958 -0.60355,-0.2305 -0.31953,-0.0798 -0.71007,-0.0798 -1.38462,0 -2.13018,0.90427 -0.73669,0.89541 -0.73669,2.57984 v 5.23061 h -1.64203 v -9.92929 h 1.64203 v 1.54259 q 0.51479,-0.90427 1.34024,-1.33868 0.82544,-0.44327 2.00592,-0.44327 0.16865,0 0.37279,0.0266 0.20414,0.0177 0.45266,0.0621 z"
         id="path8" />
      <path
         style="font-size:18.167px;line-height:1.25;letter-spacing:0px;word-spacing:0px;fill:#999999;stroke:#1a1a1a;stroke-width:0.264583"
         d="m 107.91403,103.32933 v 2.8192 h 3.36393 v 1.26776 h -3.36393 v 5.39018 q 0,1.21457 0.3284,1.56031 0.33729,0.34576 1.35801,0.34576 h 1.67752 v 1.36528 h -1.67752 q -1.89055,0 -2.60949,-0.70038 -0.71894,-0.70923 -0.71894,-2.57097 v -5.39018 h -1.19822 v -1.26776 h 1.19822 v -2.8192 z"
         id="path7" />
      <path
         style="font-size:18.167px;line-height:1.25;letter-spacing:0px;word-spacing:0px;fill:#999999;stroke:#1a1a1a;stroke-width:0.264583"
         d="m 103.04123,110.08478 v 5.99304 h -1.63314 v -5.93984 q 0,-1.4096 -0.5503,-2.10998 -0.5503,-0.70037 -1.650899,-0.70037 -1.322491,0 -2.085808,0.84222 -0.763318,0.84222 -0.763318,2.29615 v 5.61182 h -1.64202 v -9.92929 h 1.64202 v 1.54259 q 0.585802,-0.89541 1.375747,-1.33868 0.79882,-0.44327 1.837287,-0.44327 1.713021,0 2.591731,1.06385 0.8787,1.05498 0.8787,3.11176 z"
         id="path6" />
      <path
         style="font-size:18.167px;line-height:1.25;letter-spacing:0px;word-spacing:0px;fill:#999999;stroke:#1a1a1a;stroke-width:0.264583"
         d="m 87.45756,107.09755 q -1.312849,0 -2.075721,1.02899 -0.762872,1.02012 -0.762872,2.80311 0,1.78299 0.754001,2.81198 0.762872,1.02012 2.084592,1.02012 1.303979,0 2.066852,-1.02899 0.762872,-1.02899 0.762872,-2.80311 0,-1.76525 -0.762872,-2.79424 -0.762873,-1.03786 -2.066852,-1.03786 z m 0,-1.38381 q 2.128946,0 3.344219,1.38381 1.215273,1.38382 1.215273,3.8321 0,2.43942 -1.215273,3.8321 -1.215273,1.38382 -3.344219,1.38382 -2.137815,0 -3.353088,-1.38382 -1.206403,-1.39268 -1.206403,-3.8321 0,-2.44828 1.206403,-3.8321 1.215273,-1.38381 3.353088,-1.38381 z"
         id="text4"
         transform="scale(1.0005837,0.99941664)" />
      <path
         d="m 81.473725,89.927079 v 3.958842 q -1.895638,-1.76568 -4.051463,-2.639227 -2.13724,-0.873548 -4.55325,-0.873548 -4.757683,0 -7.285201,2.918019 -2.527519,2.899432 -2.527519,8.400925 0,5.48289 2.527519,8.40092 2.527518,2.89943 7.285201,2.89943 2.41601,0 4.55325,-0.87355 2.155825,-0.87355 4.051463,-2.63923 v 3.92167 q -1.969977,1.3382 -4.181556,2.0073 -2.192994,0.6691 -4.646174,0.6691 -6.300212,0 -9.924227,-3.84732 -3.624015,-3.86591 -3.624015,-10.53832 0,-6.691003 3.624015,-10.538327 3.624015,-3.865911 9.924227,-3.865911 2.490349,0 4.683343,0.669101 2.211579,0.650513 4.144387,1.970126 z"
         id="text2"
         style="font-size:38.0629px;line-height:1.25;letter-spacing:0px;word-spacing:0px;fill:#999999;stroke:#1a1a1a;stroke-width:0.264583"
         aria-label="C" />
      <path
         id="path11"
         style="font-size:18.167px;line-height:1.25;letter-spacing:0px;word-spacing:0px;fill:#000000;stroke:#1a1a1a;stroke-width:0.264583"
         d="m 109.65856,93.216826 q -0.27516,-0.159577 -0.60356,-0.230505 -0.31952,-0.07975 -0.71006,-0.07975 -1.38462,0 -2.13018,0.904272 -0.73669,0.895408 -0.73669,2.579835 v 5.230612 h -1.64203 V 91.692 h 1.64203 v 1.54259 q 0.51479,-0.904272 1.34024,-1.338679 0.82544,-0.443271 2.00592,-0.443271 0.16865,0 0.37279,0.02658 0.20414,0.01769 0.45266,0.06206 z M 55.001355,87.087464 h 18.399381 v 3.313448 H 58.938511 v 8.614964 H 72.79652 v 3.313444 H 58.938511 v 10.54456 h 14.813061 v 3.31345 H 55.001355 Z m 28.770967,4.130568 -3.809729,5.126672 4.007271,5.408876 h -2.041262 l -3.066597,-4.138967 -3.066596,4.138967 h -2.041263 l 4.091931,-5.51235 -3.743881,-5.023198 h 2.041262 l 2.793801,3.753288 2.793801,-3.753288 z m 3.915829,-2.991343 v 2.991343 h 3.565154 v 1.345163 h -3.565154 v 5.719297 q 0,1.288723 0.34805,1.655586 0.357456,0.366862 1.43923,0.366862 h 1.777874 v 1.44864 h -1.777874 q -2.003635,0 -2.76558,-0.74313 -0.761946,-0.75254 -0.761946,-2.727958 v -5.719297 h -1.26991 v -1.345163 h 1.26991 v -2.991343 z m 14.672469,7.553616 v 0.846606 h -7.95809 q 0.112881,1.787281 1.072368,2.727954 0.968894,0.931265 2.690329,0.931265 0.997105,0 1.928373,-0.24457 0.94067,-0.24458 1.86253,-0.733728 v 1.636768 q -0.93126,0.39509 -1.90956,0.60204 -0.978298,0.20694 -1.984823,0.20694 -2.521001,0 -3.997859,-1.46745 -1.467451,-1.467449 -1.467451,-3.969641 0,-2.586853 1.392197,-4.101338 1.401604,-1.523891 3.772103,-1.523891 2.125911,0 3.358193,1.373383 1.24169,1.363977 1.24169,3.715662 z m -1.73084,-0.507964 q -0.0188,-1.420417 -0.799572,-2.267024 -0.771346,-0.846606 -2.050661,-0.846606 -1.448635,0 -2.323462,0.818386 -0.86542,0.818386 -0.997114,2.304651 z m 19.32895,0.122282 v 6.358957 h -1.73084 v -6.302516 q 0,-1.495672 -0.58322,-2.238804 -0.58321,-0.743132 -1.74965,-0.743132 -1.4016,0 -2.21058,0.89364 -0.80898,0.89364 -0.80898,2.436345 v 5.954467 h -1.74025 V 91.218032 h 1.74025 v 1.636772 q 0.62084,-0.95008 1.45804,-1.420417 0.84661,-0.470337 1.9472,-0.470337 1.8155,0 2.74676,1.128808 0.93127,1.119402 0.93127,3.301765 z m 6.78963,0.790172 q -2.0977,0 -2.90668,0.479743 -0.80898,0.479744 -0.80898,1.636773 0,0.92186 0.60203,1.467449 0.61144,0.53619 1.65559,0.53619 1.43923,0 2.30465,-1.015932 0.87483,-1.025334 0.87483,-2.718547 v -0.385676 z m 3.45228,-0.714912 v 6.010907 h -1.73084 v -1.59915 q -0.59263,0.95949 -1.47686,1.42042 -0.88423,0.45152 -2.16355,0.45152 -1.61796,0 -2.57745,-0.90304 -0.95008,-0.91246 -0.95008,-2.436348 0,-1.777874 1.18525,-2.680921 1.19466,-0.903047 3.55575,-0.903047 h 2.42694 v -0.169321 q 0,-1.194656 -0.79017,-1.84372 -0.78076,-0.658472 -2.20118,-0.658472 -0.90304,0 -1.75906,0.216355 -0.85601,0.216355 -1.64618,0.649065 v -1.599146 q 0.95009,-0.366862 1.84373,-0.545591 0.89364,-0.188134 1.74024,-0.188134 2.28584,0 3.41465,1.185249 1.12881,1.185249 1.12881,3.593374 z m 1.34313,-8.353189 h 1.73084 v 14.636886 h -1.73084 z" />
    </g>
  </g>
</svg>
