<?xml version="1.0" encoding="UTF-8" standalone="no"?>
<!-- Created with Inkscape (http://www.inkscape.org/) -->

<svg
   width="78.385406mm"
   height="29.122566mm"
   viewBox="0 0 78.385406 29.122566"
   version="1.1"
   id="svg1"
   inkscape:version="1.3.2 (091e20e, 2023-11-25)"
   sodipodi:docname="ec.svg"
   xmlns:inkscape="http://www.inkscape.org/namespaces/inkscape"
   xmlns:sodipodi="http://sodipodi.sourceforge.net/DTD/sodipodi-0.dtd"
   xmlns="http://www.w3.org/2000/svg"
   xmlns:svg="http://www.w3.org/2000/svg">
  <sodipodi:namedview
     id="namedview1"
     pagecolor="#ffffff"
     bordercolor="#666666"
     borderopacity="1.0"
     inkscape:showpageshadow="2"
     inkscape:pageopacity="0.0"
     inkscape:pagecheckerboard="0"
     inkscape:deskcolor="#d1d1d1"
     inkscape:document-units="mm"
     inkscape:zoom="0.80346205"
     inkscape:cx="451.17252"
     inkscape:cy="331.06728"
     inkscape:window-width="1848"
     inkscape:window-height="1016"
     inkscape:window-x="72"
     inkscape:window-y="27"
     inkscape:window-maximized="1"
     inkscape:current-layer="layer1" />
  <defs
     id="defs1" />
  <g
     inkscape:label="Layer 1"
     inkscape:groupmode="layer"
     id="layer1"
     transform="translate(-55.001355,-87.087464)">
    <g
       id="g4">
      <path
         d="m 87.45756,107.09755 q -1.312849,0 -2.075721,1.02899 -0.762872,1.02012 -0.762872,2.80311 0,1.78299 0.754001,2.81198 0.762872,1.02012 2.084592,1.02012 1.303979,0 2.066852,-1.02899 0.762872,-1.02899 0.762872,-2.80311 0,-1.76525 -0.762872,-2.79424 -0.762873,-1.03786 -2.066852,-1.03786 z m 0,-1.38381 q 2.128946,0 3.344219,1.38381 1.215273,1.38382 1.215273,3.8321 0,2.43942 -1.215273,3.8321 -1.215273,1.38382 -3.344219,1.38382 -2.137815,0 -3.353088,-1.38382 -1.206403,-1.39268 -1.206403,-3.8321 0,-2.44828 1.206403,-3.8321 1.215273,-1.38381 3.353088,-1.38381 z m 15.52356,4.17805 v 5.99653 h -1.63219 v -5.9433 q 0,-1.41043 -0.54998,-2.11121 -0.54998,-0.70078 -1.649932,-0.70078 -1.32172,0 -2.084592,0.84271 -0.762872,0.84271 -0.762872,2.29749 v 5.61509 h -1.641062 v -9.93508 h 1.641062 v 1.54349 q 0.58546,-0.89593 1.374944,-1.33946 0.798354,-0.44353 1.836215,-0.44353 1.712027,0 2.590217,1.06447 0.87819,1.0556 0.87819,3.11358 z m 4.86996,-6.7594 v 2.82085 h 3.36196 v 1.2685 h -3.36196 v 5.39333 q 0,1.21527 0.32821,1.56122 0.33709,0.34596 1.35721,0.34596 h 1.67654 v 1.36607 h -1.67654 q -1.88944,0 -2.60796,-0.70078 -0.71852,-0.70965 -0.71852,-2.57247 v -5.39333 h -1.19753 v -1.2685 h 1.19753 v -2.82085 z m 11.26567,4.3466 q -0.27499,-0.15967 -0.6032,-0.23064 -0.31934,-0.0798 -0.70965,-0.0798 -1.38381,0 -2.12894,0.9048 -0.73626,0.89593 -0.73626,2.58134 v 5.23366 h -1.64107 v -9.93508 h 1.64107 v 1.54349 q 0.51449,-0.9048 1.33946,-1.33946 0.82496,-0.44353 2.00475,-0.44353 0.16855,0 0.37257,0.0266 0.20402,0.0177 0.4524,0.0621 z m 5.16269,-0.38144 q -1.31284,0 -2.07572,1.02899 -0.76287,1.02012 -0.76287,2.80311 0,1.78299 0.754,2.81198 0.76287,1.02012 2.08459,1.02012 1.30398,0 2.06686,-1.02899 0.76287,-1.02899 0.76287,-2.80311 0,-1.76525 -0.76287,-2.79424 -0.76288,-1.03786 -2.06686,-1.03786 z m 0,-1.38381 q 2.12895,0 3.34422,1.38381 1.21528,1.38382 1.21528,3.8321 0,2.43942 -1.21528,3.8321 -1.21527,1.38382 -3.34422,1.38382 -2.13781,0 -3.35308,-1.38382 -1.20641,-1.39268 -1.20641,-3.8321 0,-2.44828 1.20641,-3.8321 1.21527,-1.38381 3.35308,-1.38381 z m 7.26503,-3.62808 h 1.63219 v 13.80266 h -1.63219 z"
         id="text4"
         style="font-size:18.167px;line-height:1.25;letter-spacing:0px;word-spacing:0px;fill:#999999;stroke:#1a1a1a;stroke-width:0.264583"
         transform="scale(1.0005837,0.99941664)"
         aria-label="ontrol" />
      <path
         d="m 81.47682,89.87885 v 3.958691 Q 79.58111,92.071928 77.425203,91.198414 75.287882,90.3249 72.87178,90.3249 q -4.757863,0 -7.285477,2.917908 -2.527615,2.899322 -2.527615,8.400602 0,5.48269 2.527615,8.4006 2.527614,2.89932 7.285477,2.89932 2.416102,0 4.553423,-0.87351 2.155907,-0.87352 4.051617,-2.63913 v 3.92152 q -1.970052,1.33815 -4.181715,2.00722 -2.193077,0.66908 -4.64635,0.66908 -6.300451,0 -9.924604,-3.84718 -3.624153,-3.86576 -3.624153,-10.53792 0,-6.690745 3.624153,-10.537923 3.624153,-3.865764 9.924604,-3.865764 2.490444,0 4.683521,0.669075 2.211663,0.650489 4.144544,1.970052 z"
         id="text2"
         style="font-size:38.0629px;line-height:1.25;letter-spacing:0px;word-spacing:0px;fill:#999999;stroke:#1a1a1a;stroke-width:0.264583"
         transform="scale(0.99996201,1.000038)"
         aria-label="C" />
      <path
         d="m 85.478973,91.218032 -3.809729,5.126672 4.007271,5.408876 h -2.041262 l -3.066597,-4.138967 -3.066596,4.138967 h -2.041263 l 4.091931,-5.51235 -3.743881,-5.023198 h 2.041262 l 2.793801,3.753288 2.793801,-3.753288 z m 4.35532,-2.991343 v 2.991343 h 3.565154 v 1.345163 h -3.565154 v 5.719297 q 0,1.288723 0.34805,1.655586 0.357456,0.366862 1.43923,0.366862 h 1.777874 v 1.44864 h -1.777874 q -2.003635,0 -2.76558,-0.74313 -0.761946,-0.75254 -0.761946,-2.727958 v -5.719297 h -1.26991 v -1.345163 h 1.26991 v -2.991343 z m 14.853237,7.826406 v 0.846606 h -7.958097 q 0.112881,1.787281 1.072368,2.727954 0.968894,0.931265 2.690329,0.931265 0.99711,0 1.92838,-0.24457 0.94067,-0.24458 1.86253,-0.733728 v 1.636768 q -0.93126,0.39509 -1.90956,0.60204 -0.9783,0.20694 -1.98483,0.20694 -2.521001,0 -3.997859,-1.46745 -1.467451,-1.467449 -1.467451,-3.969641 0,-2.586853 1.392197,-4.101338 1.401604,-1.523891 3.772103,-1.523891 2.12592,0 3.3582,1.373383 1.24169,1.363977 1.24169,3.715662 z m -1.73084,-0.507964 q -0.0188,-1.420417 -0.79957,-2.267024 -0.77135,-0.846606 -2.05067,-0.846606 -1.448635,0 -2.323462,0.818386 -0.86542,0.818386 -0.997114,2.304651 z m 13.32935,-0.150508 v 6.358957 h -1.73084 v -6.302516 q 0,-1.495672 -0.58322,-2.238804 -0.58321,-0.743132 -1.74965,-0.743132 -1.4016,0 -2.21058,0.89364 -0.80898,0.89364 -0.80898,2.436345 v 5.954467 h -1.74025 V 91.218032 h 1.74025 v 1.636772 q 0.62084,-0.95008 1.45804,-1.420417 0.84661,-0.470337 1.9472,-0.470337 1.8155,0 2.74676,1.128808 0.93127,1.119402 0.93127,3.301765 z m 8.2403,1.062962 q -2.0977,0 -2.90668,0.479743 -0.80898,0.479744 -0.80898,1.636773 0,0.92186 0.60203,1.467449 0.61144,0.53619 1.65559,0.53619 1.43923,0 2.30465,-1.015932 0.87483,-1.025334 0.87483,-2.718547 v -0.385676 z m 3.45228,-0.714912 v 6.010907 h -1.73084 v -1.59915 q -0.59263,0.95949 -1.47686,1.42042 -0.88423,0.45152 -2.16355,0.45152 -1.61796,0 -2.57745,-0.90304 -0.95008,-0.91246 -0.95008,-2.436348 0,-1.777874 1.18525,-2.680921 1.19466,-0.903047 3.55575,-0.903047 h 2.42694 v -0.169321 q 0,-1.194656 -0.79017,-1.84372 -0.78076,-0.658472 -2.20118,-0.658472 -0.90304,0 -1.75906,0.216355 -0.85601,0.216355 -1.64618,0.649065 v -1.599146 q 0.95009,-0.366862 1.84373,-0.545591 0.89364,-0.188134 1.74024,-0.188134 2.28584,0 3.41465,1.185249 1.12881,1.185249 1.12881,3.593374 z m 3.56515,-8.625979 h 1.73084 v 14.636886 h -1.73084 z"
         id="text3"
         style="font-size:19.265px;line-height:1.25;letter-spacing:0px;word-spacing:0px;stroke-width:0.264583"
         aria-label="xtenal" />
      <path
         d="m 55.001355,87.087464 h 18.399381 v 3.313448 H 58.938511 v 8.614964 H 72.79652 v 3.313444 H 58.938511 v 10.54456 h 14.813061 v 3.31345 H 55.001355 Z"
         id="text1"
         style="font-size:39.9173px;line-height:1.25;letter-spacing:0px;word-spacing:0px;stroke-width:0.264583"
         aria-label="E" />
    </g>
  </g>
</svg>
