<?xml version="1.0" encoding="UTF-8" standalone="no"?>
<!-- Created with Inkscape (http://www.inkscape.org/) -->

<svg
   width="33.605mm"
   height="29.1mm"
   viewBox="0 0 33.605 29.100001"
   version="1.1"
   id="svg1"
   inkscape:version="1.3.2 (091e20e, 2023-11-25)"
   sodipodi:docname="ecs.svg"
   xmlns:inkscape="http://www.inkscape.org/namespaces/inkscape"
   xmlns:sodipodi="http://sodipodi.sourceforge.net/DTD/sodipodi-0.dtd"
   xmlns="http://www.w3.org/2000/svg"
   xmlns:svg="http://www.w3.org/2000/svg">
  <sodipodi:namedview
     id="namedview1"
     pagecolor="#ffffff"
     bordercolor="#666666"
     borderopacity="1.0"
     inkscape:showpageshadow="2"
     inkscape:pageopacity="0.0"
     inkscape:pagecheckerboard="0"
     inkscape:deskcolor="#d1d1d1"
     inkscape:document-units="mm"
     inkscape:zoom="1.6376026"
     inkscape:cx="316.9267"
     inkscape:cy="147.16635"
     inkscape:window-width="1848"
     inkscape:window-height="1016"
     inkscape:window-x="72"
     inkscape:window-y="27"
     inkscape:window-maximized="1"
     inkscape:current-layer="layer1" />
  <defs
     id="defs1" />
  <g
     inkscape:label="Layer 1"
     inkscape:groupmode="layer"
     id="layer1"
     transform="translate(-55.001355,-87.087464)">
    <path
       d="m 86.765395,89.882265 v 3.958842 q -1.895638,-1.76568 -4.051463,-2.639227 -2.13724,-0.873548 -4.55325,-0.873548 -4.757683,0 -7.285201,2.918019 -2.527519,2.899432 -2.527519,8.400919 0,5.4829 2.527519,8.40092 2.527518,2.89943 7.285201,2.89943 2.41601,0 4.55325,-0.87354 2.155825,-0.87355 4.051463,-2.63923 v 3.92167 q -1.969977,1.3382 -4.181556,2.00729 -2.192994,0.66911 -4.646174,0.66911 -6.300212,0 -9.924227,-3.84733 -3.624015,-3.8659 -3.624015,-10.53832 0,-6.690997 3.624015,-10.538321 3.624015,-3.865911 9.924227,-3.865911 2.490349,0 4.683343,0.669101 2.211579,0.650513 4.144387,1.970126 z"
       id="text2"
       style="font-size:38.0629px;line-height:1.25;letter-spacing:0px;word-spacing:0px;fill:#999999;stroke:#1a1a1a;stroke-width:0.264583"
       aria-label="C" />
    <path
       d="m 60.293025,87.087464 h 18.399381 v 3.313448 H 64.230181 v 8.614964 H 78.08819 v 3.313444 H 64.230181 v 10.54456 h 14.813061 v 3.31345 H 60.293025 Z"
       id="text1"
       style="font-size:39.9173px;line-height:1.25;letter-spacing:0px;word-spacing:0px;stroke-width:0.264583"
       aria-label="E" />
  </g>
</svg>
